                  <svg
                    xmlns="http://www.w3.org/2000/svg"
                    width="21"
                    height="5"
                    viewBox="0 0 21 5"
                    fill="none"
                  >
                    <path
                      fill-rule="evenodd"
                      clip-rule="evenodd"
                      d="M18.6956 5C17.423 5 16.3913 3.96349 16.3913 2.685C16.3913 1.40617 17.423 0.37 18.6956 0.37C19.9683 0.37 21 1.40617 21 2.685C21 3.96349 19.9683 5 18.6956 5ZM10.4998 5C9.22721 5 8.19547 3.96349 8.19547 2.685C8.19547 1.40617 9.22721 0.37 10.4998 0.37C11.7726 0.37 12.8042 1.40617 12.8042 2.685C12.8042 3.96349 11.7726 5 10.4998 5ZM4.60902 2.685C4.60902 1.40617 3.57728 0.37 2.30437 0.37C1.03175 0.37 0 1.40617 0 2.685C0 3.96349 1.03175 5 2.30437 5C3.57732 5 4.60902 3.96349 4.60902 2.685Z"
                      fill="white"
                      fill-opacity="0.6"
                    />
                  </svg>