<svg xmlns="http://www.w3.org/2000/svg" width="24" height="24" viewBox="0 0 24 24" fill="none">
<path d="M16.4107 3.9995C18.3507 3.9995 19.9107 5.5695 19.9107 7.4995C19.9107 9.3895 18.4107 10.9295 16.5407 10.9995C16.4543 10.9895 16.3671 10.9895 16.2807 10.9995M18.3407 19.9995C19.0607 19.8495 19.7407 19.5595 20.3007 19.1295C21.8607 17.9595 21.8607 16.0295 20.3007 14.8595C19.7507 14.4395 19.0807 14.1595 18.3707 13.9995M9.1607 10.8695C9.0607 10.8595 8.9407 10.8595 8.8307 10.8695C7.68291 10.8305 6.59535 10.3463 5.79833 9.51946C5.00132 8.69258 4.55744 7.58795 4.5607 6.4395C4.5607 3.9895 6.5407 1.9995 9.0007 1.9995C10.1769 1.97828 11.3134 2.42519 12.1602 3.24191C13.0069 4.05864 13.4945 5.17827 13.5157 6.3545C13.5369 7.53074 13.09 8.66723 12.2733 9.51395C11.4566 10.3607 10.3369 10.8483 9.1607 10.8695ZM4.1607 14.5595C1.7407 16.1795 1.7407 18.8195 4.1607 20.4295C6.9107 22.2695 11.4207 22.2695 14.1707 20.4295C16.5907 18.8095 16.5907 16.1695 14.1707 14.5595C11.4307 12.7295 6.9207 12.7295 4.1607 14.5595Z" stroke="white" stroke-opacity="0.6" stroke-width="1.5" stroke-linecap="round" stroke-linejoin="round"/>
</svg>